<?xml version="1.0" encoding="UTF-8" standalone="no"?><!DOCTYPE svg PUBLIC "-//W3C//DTD SVG 1.1//EN" "http://www.w3.org/Graphics/SVG/1.1/DTD/svg11.dtd"><svg width="100%" height="100%" viewBox="0 0 1636 1636" version="1.1" xmlns="http://www.w3.org/2000/svg" xmlns:xlink="http://www.w3.org/1999/xlink" xml:space="preserve" xmlns:serif="http://www.serif.com/" style="fill-rule:evenodd;clip-rule:evenodd;stroke-linejoin:round;stroke-miterlimit:2;"><path d="M0,817.622c0,451.55 366.063,817.609 817.622,817.609c451.55,0 817.619,-366.059 817.619,-817.609c0,-451.566 -366.069,-817.625 -817.619,-817.625c-451.559,0 -817.622,366.059 -817.622,817.625Z" style="fill:url(#_Radial1);fill-rule:nonzero;"/><path d="M312.563,215.209c-142.907,116.9 -215.497,265.007 -252.272,390.407c-31.91,102.634 -34.119,176.728 -34.119,176.728c0.253,-1.894 0.541,-3.744 0.803,-5.625c-5.472,54.984 -3.809,89.406 -3.809,89.406c22.015,-421.975 306.634,-629.719 306.634,-629.719c290.906,-242.372 629.291,-195.778 629.291,-195.778c-45.51,-7.244 -89.225,-10.447 -130.86,-10.45c-316.615,-0.019 -515.668,185.031 -515.668,185.031Z" style="fill:url(#_Linear2);fill-rule:nonzero;"/><path d="M1311.37,1398.28c-290.919,242.372 -629.313,195.772 -629.313,195.772c391.635,62.325 646.541,-174.581 646.541,-174.581c142.916,-116.894 215.497,-265.003 252.284,-390.406c31.907,-102.628 34.103,-176.738 34.103,-176.738c-0.246,1.9 -0.531,3.753 -0.79,5.628c5.462,-54.978 3.797,-89.393 3.797,-89.393c-22,421.962 -306.622,629.718 -306.622,629.718Z" style="fill:url(#_Linear3);fill-rule:nonzero;"/><path d="M337.478,460.903c0,0 -4.813,-2.659 -5.953,-8.665c0,0 0.69,-3.903 4.262,-4.169c0,0 10.356,3.622 10.413,10.784c0,0 1.412,6.963 -8.722,2.05m5.584,-25.853c-16.756,2.103 -15.309,22.597 -15.309,22.597c2.903,17.588 18.84,15.413 18.84,15.413c2.716,-1.094 3.61,1.318 3.61,1.318l2.309,4.991c5.697,10.738 8.278,-0.775 8.278,-0.775c4.541,-17.872 4.06,-23.678 4.06,-23.678c-0.169,-20.85 -21.788,-19.866 -21.788,-19.866m160.775,10.422c0.45,9.928 -4.659,13.95 -4.659,13.95c-13.285,3.025 -8.441,-9.55 -8.441,-9.55c4.035,-2.872 7.775,-6.687 7.775,-6.687c5.819,-3.007 5.325,2.287 5.325,2.287m1.266,-10.309c-12.2,-15.006 -27.603,-1.278 -27.603,-1.278c-5.988,8.462 -5.166,16.89 -5.166,16.89c-2.447,13.216 -1.791,20.719 -1.791,20.719c1.047,4.659 5.554,2.219 5.554,2.219c3.768,-2.691 7.043,-8.172 7.043,-8.172c0.369,-0.828 2.038,-0.313 2.038,-0.313c12.962,3.185 17.903,-3.665 17.903,-3.665c12.728,-12.303 2.022,-26.4 2.022,-26.4m-95.566,90.944c1.685,-7.019 14.394,-2.491 14.394,-2.491c13.447,2.822 8.1,5.075 8.1,5.075c-8.231,2.519 -8.066,2.553 -13.391,4.534c-13.356,1.747 -9.103,-7.118 -9.103,-7.118m31.566,17.475c0,0 12.612,-17.938 -9.15,-27.25c0,0 -10.153,-3.629 -20.991,1.784c0,0 -15.753,12.791 -4.862,27.516c0,0 20.668,7.781 35.003,-2.05m33.753,16.29c0,0 -18.759,11.556 -40.159,-1.712c0,0 -4.279,-5.678 -7.129,0.54c0,0 -0.146,7.488 -27.715,19.916c0,0 -8.7,3.634 -12.106,6.05c-1.36,0.975 0.546,1.894 7.431,2.562c0,0 20.34,-0.15 37.028,-17.428c0,0 20.591,5.432 36.747,1.116c0,0 11.234,-3.831 11.031,-10.134c0,0 1.663,-1.957 -5.128,-0.91" style="fill:#181715;fill-rule:nonzero;"/><path d="M520.929,798.647c0,0 -0.475,-6.288 -34.613,-37.769c0,0 -14.35,-14.491 -41.897,-7.863c0,0 -31.187,3.594 -45.8,22.728c0,0 -25.875,24.166 -19.756,54.875c0,0 -0.025,13.188 15.194,13.516c0,0 7.756,3.419 13.925,-8.684c0,0 27.537,-44.994 61.597,-40.466c0,0 7.622,1.25 20.753,-0.069c3.894,-0.393 17.612,1.782 22.844,4.203c0,0 9.593,4.432 7.753,-0.471" style="fill:#e2020d;fill-rule:nonzero;"/><path d="M503.082,461.562c0,0 -4.941,6.85 -17.904,3.669c0,0 -1.668,-0.519 -2.04,0.309c0,0 -3.272,5.482 -7.041,8.175c0,0 -4.506,2.438 -5.556,-2.222c0,0 -0.653,-7.503 1.794,-20.718c0,0 -0.822,-8.428 5.165,-16.891c0,0 15.403,-13.728 27.603,1.281c0,0 10.704,14.094 -2.021,26.397m-142.291,17.031c0,0 -2.581,11.516 -8.278,0.775l-2.31,-4.99c0,0 -0.893,-2.41 -3.609,-1.319c0,0 -15.937,2.175 -18.841,-15.412c0,0 -1.446,-20.494 15.307,-22.597c0,0 21.622,-0.985 21.79,19.865c0,0 0.482,5.807 -4.059,23.678m846.625,438.879c-27.388,-37.647 -36.966,-54.866 -36.966,-54.866c-10.25,-11.659 -14.622,-43.45 -14.622,-43.45c-4.812,-42.628 -14.775,-77.016 -14.775,-77.016c-39.025,-163.865 -158.253,-218.918 -158.253,-218.918c-72.981,-36.894 -143.734,-28.057 -143.734,-28.057c-23.463,-0.087 -63.631,16.541 -63.631,16.541c-22.891,7.6 -121.882,44.316 -121.882,44.316c-11.134,4.9 -13.5,-3.269 -13.5,-3.269c-3.696,-9.013 -10.49,-8.731 -10.49,-8.731c-10.378,-1.894 -12.778,4.318 -12.778,4.318c-2.569,7.907 -13.678,11.016 -13.678,11.016c-49.369,8.9 -62.579,-49.216 -62.579,-49.216l-0.287,-0.056c-5.65,-17.006 -4.175,-19.537 -4.175,-19.537c1.419,-11.404 -6.056,-21.363 -6.056,-21.363c-4.557,-11.553 1.215,-22.753 1.215,-22.753c5.703,-11.531 8.453,-24.631 8.453,-24.631c4.585,-21.869 -8.175,-36.803 -8.175,-36.803c-11.818,-17.757 -29.965,-17.966 -29.965,-17.966c-9.025,-0.4 -16.022,10.153 -16.022,10.153c-5.334,6.978 -13.634,10.888 -13.634,10.888c-15.063,7.178 -24.904,-0.969 -24.904,-0.969c-9.696,-9.919 -30.496,-12.541 -30.496,-12.541c-33.654,-2.044 -50.516,15.41 -50.516,15.41c-4.394,5.796 -12.416,7.228 -12.416,7.228c-11.722,0.753 -13.178,-5.928 -13.178,-5.928c-6.472,-13.222 -17.112,-14.347 -17.112,-14.347c-20.96,-1.753 -32.366,20.556 -32.366,20.556c-11.747,24.184 1.497,62.181 1.497,62.181c1.541,7.881 17.656,56.947 17.656,56.947c1.256,2.941 0.497,6.669 0.497,6.669c-2.547,9.044 0.472,12.969 0.472,12.969c1.256,5.7 22.056,28.696 22.056,28.696c6.028,9.2 23.119,10.519 23.119,10.519c4.847,0.253 4.712,5.819 4.712,5.819c-0.312,5.775 5.913,11.853 5.913,11.853c5.15,6.028 4.722,16.644 4.722,16.644c-1.206,7.453 9.215,17.347 9.215,17.347c3.072,2.34 43.869,46.387 43.869,46.387c9.647,3.494 4.681,-2.453 4.681,-2.453c-23.659,-22.972 -43.953,-49.403 -43.953,-49.403c-1.881,-3.013 -1.322,-8.531 -1.322,-8.531c1.019,-13.253 -2.678,-25.735 -2.678,-25.735c-1.79,-7.375 -8.928,-11.809 -8.928,-11.809c-17.965,-8.225 -23.778,-11.234 -23.778,-11.234c-20.237,-15.538 -31.291,-32.36 -31.291,-32.36c-2.85,-3.181 -0.984,-8.125 -0.984,-8.125c3.156,-7.272 11.747,-1.734 11.747,-1.734c15.744,11.072 20.331,16.9 20.331,16.9c3.547,5.459 17.863,12.884 17.863,12.884c17.868,11.535 24.293,-2.584 24.293,-2.584c4.141,-9.125 1.75,-17.544 1.75,-17.544c-1.293,-3.728 -2.303,-10.409 -2.303,-10.409c-7.909,-18.388 0.463,-12.35 0.463,-12.35c26.787,8.843 62.04,-2.344 62.04,-2.344c5.41,1.734 0.413,11.509 0.413,11.509c-4.216,25.357 1.566,23.182 1.566,23.182c10.668,4.484 24.668,2.975 24.668,2.975c13.844,0.603 24.297,-20.425 24.297,-20.425c4.966,-20.441 14.153,-36.891 14.153,-36.891c9.65,-6.388 10.232,9.837 10.232,9.837c1.631,10.557 7.903,19.954 7.903,19.954c9.875,16.534 11.412,36.528 11.412,36.528c1.738,27.525 -9.784,63.184 -9.784,63.184c-4.075,9.928 -15.55,94.641 -15.55,94.641c-4.191,22.809 4.722,36.868 4.722,36.868c3.037,7.685 17.543,27.7 17.543,27.7c12.557,13.638 18.55,31.169 18.55,31.169c16.788,32.053 14.988,47.269 14.988,47.269c-2.975,27.675 -11.656,47.778 -11.656,47.778c-9.538,16.672 -29.003,21.431 -29.003,21.431c-15.11,4.222 -25.007,13.794 -25.007,13.794c-12.209,9.344 -10.35,22.066 -10.35,22.066c2.728,9.575 8.56,12.24 8.56,12.24c7.397,6.235 22.628,5.491 22.628,5.491c24.569,-0.444 33.053,-16.1 33.053,-16.1c5.694,-11.55 12.697,-10.459 12.697,-10.459c2.053,-0.075 8.222,1.287 8.222,1.287c11.175,0.663 19.453,-11.859 19.453,-11.859c5.456,-11.272 4.665,-19.932 4.665,-19.932c-0.403,-6.709 2.013,-16.765 2.013,-16.765c1.228,-6.956 4.703,-9.241 4.703,-9.241l10.613,-10.212c54.868,-50.535 60.718,-92.466 60.718,-92.466c4.463,-17.803 -5.678,-34.15 -6.162,-34.884c-4.691,-7.091 4.597,-8.585 4.597,-8.585c3.865,-0.675 10.062,1.535 10.062,1.535c8.041,5.562 13.769,5.575 13.769,5.575c11.491,3.368 17.559,-9.888 17.559,-9.888c4.86,-6.325 11.653,-6.225 11.653,-6.225c12.847,-0.434 15.438,6.056 15.438,6.056c6.553,13.944 20.537,13.257 20.537,13.257c9.86,0.178 15.45,-11.71 15.45,-11.71c2.341,-5.787 8.166,-7.184 8.166,-7.184c3.584,-0.038 9.469,-2.647 9.469,-2.647c24.009,-1.066 22.79,2.944 22.79,2.944c3.913,16.865 14.741,12.569 14.741,12.569c10.759,-8.347 15.903,4.437 15.903,4.437c14.372,25.175 37.463,8.478 37.463,8.478l10.815,1.635c8.613,3.678 0.319,11.656 0.319,11.656c-3.403,5.881 -12.981,10.634 -12.981,10.634c-20.922,14.935 -19.919,39.372 -19.919,39.372c0.238,25.647 14.041,42.088 14.041,42.088l20.572,28.975c18.253,28.568 29.093,36.003 29.093,36.003c13.263,24.165 -16.965,28.093 -16.965,28.093c-20.903,2.591 -41.647,5.879 -41.647,5.879c-26.997,3.843 -34.763,11.053 -34.763,11.053c-22.722,12.843 -18.228,27.865 -18.228,27.865c1.263,16.741 26.231,11.56 26.231,11.56c55.454,-8.722 207.519,-45.713 207.519,-45.713c26.491,-6.562 26.575,-21.753 26.575,-21.753l2.269,-12.831c2.366,-11.472 12.337,-14.681 12.337,-14.681c32.704,-6.807 44.807,11.193 44.807,11.193c20.803,27.469 22.412,51.572 22.412,51.572c3.594,55.172 -32.45,103.4 -32.45,103.4c-40.403,52.875 -67.187,88.135 -67.187,88.135c-9.388,14.162 -14.735,35.443 -14.735,35.443c-7.684,31.163 -5.531,37.982 -5.531,37.982c6.791,19.693 18.288,12.771 18.288,12.771c8.512,-5.087 33.918,-11.043 33.918,-11.043c43.607,-26.028 66.366,-73.647 66.366,-73.647c19.203,-27.341 41.734,-92 41.734,-92c19.516,-39.222 21.732,-68.366 21.732,-68.366c4.265,-70.587 -27.616,-102.765 -27.616,-102.765" style="fill:#e2020d;fill-rule:nonzero;"/><path d="M850.378,930.111c15.193,-3.819 12.493,-10.434 12.493,-10.434c3.007,-7.05 -16.768,-19.557 -16.768,-19.557c-13.01,-6.618 -10.916,-22.487 -10.916,-22.487c-0.638,-4.431 5.725,-36.481 5.725,-36.481c0.259,-7.535 -5.994,-8.291 -5.994,-8.291c-9.872,-0.275 -30.637,-11.15 -30.637,-11.15c-7.807,-3.913 -2.603,6.737 -2.603,6.737c9.975,19.81 15.39,37.347 15.39,37.347c1.713,14.369 -6.328,15.822 -6.328,15.822c-15.934,11.966 -45.037,6.141 -45.037,6.141c-28.404,-5.747 -36.716,7.228 -36.716,7.228c-17.672,21.772 -0.884,35.181 -0.884,35.181c12.056,14.025 26.865,4.375 26.865,4.375c34.238,-11.278 65.797,-5.344 65.797,-5.344c18.634,2.938 29.613,0.913 29.613,0.913" style="fill:#e2020d;fill-rule:nonzero;"/><path d="M1294.73,512.851c5.215,-19.522 17.115,-24.15 35.675,-24.085c15.418,0.063 50.959,9.416 24.693,26.975c-22.184,14.825 -75.984,53.597 -60.368,-2.89m-51.941,-18.428c-11.159,42.771 -22.875,86.218 -32.238,129.409c-4.528,20.9 -10.803,48.394 13.454,59.041c20.068,8.815 28.856,-2.375 34.409,-19.819c2.909,-9.157 6.109,-57.344 20.631,-52.216c15.2,5.372 24.316,37.359 31.006,49.953c8.632,16.25 17.982,31.669 29.329,46.207c4.928,6.312 10.031,12.696 17.284,16.349c5.812,2.919 32.991,13.4 36.078,2.338c2.659,-9.559 -14.234,-39.069 -18.231,-48.712c-7.469,-17.988 -19.941,-32 -29.978,-48.494c-5.885,-9.678 -25.172,-28.278 -10.819,-33.307c22.603,-7.928 44.778,-18.803 63.566,-33.784c30.546,-24.353 24.259,-77.172 -9.707,-97.437c-19.2,-11.447 -42.759,-16.703 -64.381,-21.485c-16.319,-3.612 -21.666,-39.215 -45.687,-27.137c-10.541,5.293 -16.916,17.103 -20.532,27.778l-14.184,51.315Z" style="fill:#161715;"/><path d="M897.607,122.975c7.956,2.209 21.781,10.997 18.887,21.488c-5.387,19.25 -28.344,12.421 -42.706,16.718c-45.978,14.203 -90.881,31.666 -135.947,48.5c-7.944,2.963 -92.628,32.691 -56.413,59.732c12.369,9.246 47.119,-6.935 59.616,-10.394c20.109,-5.566 40.869,-13.356 61.638,-16.022c10.862,-1.397 13.712,15.503 11.64,22.984c-4.194,15.144 -27.447,23.335 -40.519,27.382c-36.671,11.278 -77.45,12.471 -108.896,37.021c-19.279,14.957 -24.638,60.169 -31.032,83.216c-6.409,23.134 -13.606,52.181 -40.797,56.003c-22.237,3.125 -9.575,-18.897 -6.228,-31.009c12.247,-44.188 23.438,-86.441 30.5,-131.741c7.366,-47.147 -6.018,-33.281 -36.037,-58.144c-28.803,-23.834 88.45,-57.034 106.806,-62.665c57.494,-17.65 148.453,-79.969 209.488,-63.069" style="fill:#161715;fill-rule:nonzero;"/><path d="M930.258,224.475c49.6,13.756 -65.494,102.743 -77.785,122.097c-8.903,14.031 -34.503,54.65 -10.662,66.503c24.431,12.147 49.197,4.737 72.134,-6.582c44.919,-22.162 82.747,-65.743 27.353,-100.281c-50.465,-31.465 21.547,-36.444 49.21,-17.819c40.806,27.457 28.975,85.297 -2.1,115.144c-33.922,32.585 -88.582,52.397 -135.544,50.56c-143.216,-5.61 -10.025,-253.8 77.394,-229.622" style="fill:#161715;fill-rule:nonzero;"/><path d="M1104.68,293.351c47.181,13.081 -56.55,146.009 -33.556,192.803c23.472,47.765 92.984,-39.378 104.097,-58.591c5.306,-9.194 32.178,-81.662 51.346,-54.375c14.947,21.285 11.197,33.803 -1.793,53.091c-30.772,45.656 -61.922,88.981 -115.41,110.378c-51.209,20.491 -86.025,-18.991 -89.831,-69.85c-2.603,-34.791 30.025,-188.728 85.147,-173.456" style="fill:#161715;fill-rule:nonzero;"/><path d="M1079.73,1075.97c35.684,5.747 -72.681,120.562 -79.747,130.281c-20.381,28.1 -35.691,57.3 -47.525,89.163c-5.541,14.934 -14.103,58.096 -31.725,65.937c-60.809,27.031 -43.209,-124.812 -53.941,-136.887c-10.406,-11.729 -54.012,66.906 -57.912,73.2c-16.469,26.621 -56.378,64.562 -63.184,6.668c-4.991,-42.643 -3.875,-85.25 -10.838,-128.2c-3.822,-23.531 -7.581,-47.384 -7.841,-71.203c-0.19,-18.709 26.197,-64.153 43.582,-30.656c22.44,43.259 4.968,105.366 17.584,151.459c-0.169,-0.64 70.131,-68.822 79.356,-75.906c50.047,-38.425 45.225,97.725 46.547,107.513c29.35,-37.813 52.916,-79.129 84.56,-115.513c10.387,-11.959 57.559,-69.641 81.084,-65.856" style="fill:#161715;fill-rule:nonzero;"/><path d="M1248.16,1127.51c30.691,-0.319 106.913,36.112 57.475,67.928c-28.1,18.084 -86.256,-57.728 -85.5,19.784c0.531,56.547 62.425,89.475 39.844,150.069c-20,53.675 -82.85,74.7 -133.338,54.216c-33.359,-13.535 -87.262,-48.475 -77.653,-91.897c6.725,-30.378 24.207,-20.8 39.753,-2.163c19.1,22.919 34.825,37.25 66.172,42.46c85.425,14.172 44.438,-83.797 29.485,-125.028c-17.688,-48.747 1.784,-114.791 63.762,-115.369" style="fill:#161715;fill-rule:nonzero;"/><path d="M661.439,1033c80.032,13.003 -11.25,122.766 37.047,137.078c30.453,9.022 -20.115,40.772 -19.878,38.241c-1.975,20.806 -3.94,41.616 -5.912,62.422c-1.491,15.703 -4.532,38.131 -28.644,34.194c-22.959,-3.744 -21.291,-40.394 -19.828,-55.832c1.197,-12.518 7.9,-26.572 5.147,-39.162c-3.425,-15.728 -59.644,-11.7 -71.06,-12.231c-22.128,-1.032 -39.862,-6.41 -53.325,11.075c-14.35,18.64 -28.778,41.806 -50.218,54.237c-22.207,12.884 -36.325,-7.256 -24.31,-25.231c7.853,-11.744 16.141,-23.253 24.553,-34.666c14.838,-20.15 -12.09,-12.472 -1.022,-29.178c11.882,-17.909 30.869,-10.678 40.891,-21.394c13.272,-14.193 27.091,-27.975 41.294,-41.368c26.494,-24.991 81.447,-85.35 125.265,-78.185m-25.453,54.522c1.307,19.653 -1.712,37.684 -4.347,57.316c-4.028,29.89 -44.143,19.275 -71.743,13.778c21.353,-27.425 43.584,-54.297 76.09,-71.094" style="fill:#161715;"/><path d="M401.379,1041.54c-8.113,-9.947 11.803,-40.403 25.49,-39.487c6.019,0.381 54.291,11.79 50.907,21.403c-3.272,9.321 -69.738,26.184 -76.397,18.084m65.765,34.819c24.297,-5.266 81.782,-16.128 95.675,-38.466c18.788,-30.197 -61.946,-54.409 -79.315,-61.275c-76.485,-30.256 -163.3,-25.856 -242.225,-4.359c-26.028,7.078 -32.619,40.709 -5.053,51.912c35.272,14.328 69.856,-26.612 105.331,-14.434c31.778,10.903 -18.113,59.884 -37.544,62.734c-18.353,2.678 -47.59,38.172 -37.981,57.157c3.234,6.365 35.684,-11.166 38.359,-5.947c7.6,15.109 -33.006,78.353 -40.731,95.918c-11.144,25.335 -4.031,34.191 21.6,41.922c24.969,7.51 27.553,-4.756 34.928,-24.553c11.95,-32.069 25.069,-63.694 36.635,-95.916c18.084,-50.375 58.015,-53.384 110.321,-64.693" style="fill:#161715;"/><defs><radialGradient id="_Radial1" cx="0" cy="0" r="1" gradientUnits="userSpaceOnUse" gradientTransform="matrix(817.617,0,0,817.617,817.623,817.614)"><stop offset="0" style="stop-color:#fff;stop-opacity:1"/><stop offset="0.97" style="stop-color:#fff;stop-opacity:1"/><stop offset="1" style="stop-color:#c5c7c7;stop-opacity:1"/></radialGradient><linearGradient id="_Linear2" x1="0" y1="0" x2="1" y2="0" gradientUnits="userSpaceOnUse" gradientTransform="matrix(-201.069,-239.625,239.625,-201.069,501.017,465.163)"><stop offset="0" style="stop-color:#fff;stop-opacity:1"/><stop offset="0.62" style="stop-color:#fff;stop-opacity:1"/><stop offset="1" style="stop-color:#c5c7c7;stop-opacity:1"/></linearGradient><linearGradient id="_Linear3" x1="0" y1="0" x2="1" y2="0" gradientUnits="userSpaceOnUse" gradientTransform="matrix(201.069,239.625,-239.625,201.069,1140.14,1169.53)"><stop offset="0" style="stop-color:#fff;stop-opacity:1"/><stop offset="0.62" style="stop-color:#fff;stop-opacity:1"/><stop offset="1" style="stop-color:#c5c7c7;stop-opacity:1"/></linearGradient></defs></svg>